<!DOCTYPE svg PUBLIC "-//W3C//DTD SVG 1.1//EN" "http://www.w3.org/Graphics/SVG/1.1/DTD/svg11.dtd">
<!-- Uploaded to: SVG Repo, www.svgrepo.com, Transformed by: SVG Repo Mixer Tools -->
<svg fill="#666666" height="24px" width="24px" version="1.1" id="Layer_1" xmlns="http://www.w3.org/2000/svg" xmlns:xlink="http://www.w3.org/1999/xlink" viewBox="0 0 512.048 512.048" xml:space="preserve" stroke="#666666">
<g id="SVGRepo_bgCarrier" stroke-width="0"/>
<g id="SVGRepo_tracerCarrier" stroke-linecap="round" stroke-linejoin="round"/>
<g id="SVGRepo_iconCarrier"> <g> <g> <path d="M451.056,236.048h-14.684c-10.32-34.464-29.872-64.168-58.148-88.328c-1.68-1.436-4.204-1.24-5.636,0.44 c-1.44,1.68-1.24,4.204,0.44,5.636c27.844,23.796,46.852,53.18,56.488,87.336c0.488,1.724,2.064,2.916,3.852,2.916h17.688 c9.232,0,17.328,7.964,17.328,17.048v61.392c0,9.192-8.256,17.56-17.328,17.56h-17.688c-1.784,0-3.356,1.184-3.848,2.904 c-10.504,36.796-33.856,69.536-67.532,94.676c-1.012,0.76-1.604,1.948-1.604,3.208v46.256c0,9.508-6.904,16.956-15.716,16.956 h-17.132c-9.664,0-19.152-8.396-19.152-16.956v-17.536c0-1.264-0.592-2.452-1.604-3.204c-1.016-0.756-2.324-0.996-3.524-0.632 c-16.276,4.792-32.256,7.124-48.872,7.124c-16.616,0-32.6-2.332-48.872-7.124c-1.208-0.364-2.516-0.124-3.524,0.632 c-1.012,0.756-1.604,1.944-1.604,3.204v17.536c0,9.192-7.684,16.956-16.78,16.956h-17.14c-9.464,0-18.08-8.08-18.08-16.956 v-46.256c0-1.248-0.58-2.42-1.568-3.176c-45.748-35.032-73.06-89.564-73.06-145.864c0-43.664,16.376-86.236,46.116-119.868 c1.464-1.652,1.308-4.18-0.348-5.644c-1.656-1.46-4.184-1.308-5.644,0.348c-31.036,35.092-48.124,79.548-48.124,125.164 c0,58.128,27.86,114.424,74.624,151v44.296c0,13.292,12.188,24.956,26.08,24.956h17.14c13.432,0,24.78-11.428,24.78-24.956v-12.26 c15.26,4.044,30.364,6.016,46,6.016s30.74-1.972,46-6.016v12.26c0,14.284,14.336,24.956,27.152,24.956h17.132 c13.3,0,23.716-10.96,23.72-24.96v-44.26c33.352-25.372,56.784-58.052,67.972-94.78h14.7c13.492,0,25.328-11.944,25.328-25.56 v-61.392C476.384,247.752,464.548,236.048,451.056,236.048z"/> </g> </g> <g> <g> <path d="M376.384,72.216c-20.524,0-40.304,10.184-52.908,27.236c-1.312,1.776-0.932,4.28,0.84,5.596 c1.788,1.312,4.284,0.928,5.596-0.84c10.272-13.908,25.924-22.624,42.468-23.844v71.684c0,2.212,1.788,4,4,4 c2.212,0,4-1.788,4.004-4V76.216C380.384,74.004,378.596,72.216,376.384,72.216z"/> </g> </g> <g> <g> <path d="M357.804,224.876c-0.804-2.056-3.128-3.06-5.184-2.26c-2.052,0.804-3.068,3.124-2.26,5.184 c0.752,1.928,1.136,3.972,1.136,6.072c0,9.212-7.492,16.704-16.704,16.704c-9.212,0-16.704-7.492-16.704-16.704 c0-9.216,7.492-16.712,16.704-16.712c2.804,0,5.576,0.712,8.012,2.052c1.936,1.064,4.368,0.36,5.432-1.576 c1.064-1.936,0.356-4.364-1.576-5.432c-3.62-1.992-7.724-3.044-11.872-3.044c-13.62,0-24.704,11.088-24.704,24.712 c0,13.62,11.084,24.704,24.704,24.704s24.7-11.084,24.708-24.708C359.496,230.764,358.924,227.74,357.804,224.876z"/> </g> </g> <g> <g> <path d="M97.228,196.424c-1.836-1.228-4.32-0.752-5.556,1.08c-4.888,7.248-13.028,11.576-21.764,11.576 c-14.472,0-26.24-11.776-26.24-26.248c0-11.256,7.156-21.248,17.808-24.856c2.088-0.712,3.212-2.984,2.504-5.076 c-0.712-2.088-2.98-3.208-5.076-2.504c-13.9,4.712-23.24,17.748-23.24,32.432c0,18.884,15.36,34.248,34.24,34.248 c11.396,0,22.012-5.644,28.404-15.096C99.54,200.148,99.06,197.664,97.228,196.424z"/> </g> </g> <g> <g> <path d="M266.86,104.048h-42.48V63.944c0-8.796-5.164-11.928-10-11.928s-10,3.132-10,11.928v40.104h-41.236 c-6.572,0-11.924,5.384-11.924,12c0,6.616,5.348,12,11.924,12h41.236v39.608c0,8.796,5.164,11.928,10,11.928s10-3.132,10-11.932 v-39.604h42.48c6.572,0,11.924-5.384,11.924-12C278.784,109.432,273.436,104.048,266.86,104.048z M266.86,120.048h-46.48 c-2.212,0-4,1.788-4,4v43.604c0,3.928-1.352,3.928-2,3.928s-2,0-2-3.928v-43.604c0-2.212-1.788-4-4-4h-45.236 c-2.128,0-3.924-1.832-3.924-4c0-2.168,1.796-4,3.924-4h45.236c2.212,0,4-1.788,4-4V63.944c0-3.928,1.352-3.928,2-3.928 s2,0,2,3.928v44.104c0,2.212,1.788,4,4,4h46.48c2.128,0,3.924,1.832,3.924,4C270.784,118.216,268.988,120.048,266.86,120.048z"/> </g> </g> <g> <g> <path d="M215,0C151.148,0,99.2,51.944,99.2,115.796C99.2,179.652,151.148,231.6,215,231.6 c63.856,0,115.804-51.952,115.804-115.804S278.856,0,215,0z M215,223.596c-59.44,0-107.8-48.36-107.8-107.804 C107.2,56.356,155.56,7.996,215,7.996c59.448,0,107.804,48.36,107.804,107.796C322.804,175.236,274.444,223.596,215,223.596z"/> </g> </g> <g> <g> <path d="M292.94,52.988c-1.392-1.712-3.908-1.98-5.624-0.592s-1.984,3.908-0.592,5.624c13.176,16.272,20.432,36.792,20.432,57.784 c0,50.676-41.228,91.904-91.904,91.904c-50.676,0-91.908-41.228-91.908-91.904c0-50.676,41.232-91.904,91.908-91.904 c18.036,0,35.492,5.216,50.48,15.088c1.844,1.216,4.324,0.704,5.54-1.14c1.216-1.844,0.708-4.324-1.14-5.54 c-16.296-10.736-35.276-16.412-54.88-16.412c-55.092,0-99.908,44.812-99.908,99.9s44.82,99.904,99.908,99.904 c55.084,0,99.9-44.816,99.904-99.896C315.156,92.988,307.264,70.68,292.94,52.988z"/> </g> </g> </g>
</svg>