<!DOCTYPE svg PUBLIC "-//W3C//DTD SVG 1.1//EN" "http://www.w3.org/Graphics/SVG/1.1/DTD/svg11.dtd">
<!-- Uploaded to: SVG Repo, www.svgrepo.com, Transformed by: SVG Repo Mixer Tools -->
<svg version="1.1" id="Icons" xmlns="http://www.w3.org/2000/svg" xmlns:xlink="http://www.w3.org/1999/xlink" viewBox="0 0 32 32" xml:space="preserve" width="24px" height="24px" fill="#666666" stroke="#666666">
<g id="SVGRepo_bgCarrier" stroke-width="0"/>
<g id="SVGRepo_tracerCarrier" stroke-linecap="round" stroke-linejoin="round"/>
<g id="SVGRepo_iconCarrier"> <style type="text/css"> .st0{fill:none;stroke:#666666;stroke-width:2;stroke-linecap:round;stroke-linejoin:round;stroke-miterlimit:10;} </style> <polygon class="st0" points="16,3 3,10 3,13 29,13 29,10 "/> <rect x="5" y="13" class="st0" width="4" height="10"/> <circle class="st0" cx="24" cy="24" r="7"/> <line class="st0" x1="24" y1="21" x2="24" y2="27"/> <line class="st0" x1="21" y1="24" x2="27" y2="24"/> <polyline class="st0" points="19.1,29 1,29 1,26 17.3,26 "/> <polyline class="st0" points="17.3,26 3,26 3,23 17.1,23 "/> <polyline class="st0" points="23,17.1 23,13 27,13 27,17.7 "/> <polyline class="st0" points="17.1,23 14,23 14,13 18,13 18,20.4 "/> </g>
</svg>