<!DOCTYPE svg PUBLIC "-//W3C//DTD SVG 1.1//EN" "http://www.w3.org/Graphics/SVG/1.1/DTD/svg11.dtd">
<!-- Uploaded to: SVG Repo, www.svgrepo.com, Transformed by: SVG Repo Mixer Tools -->
<svg fill="#666666" height="24px" width="24px" version="1.1" id="Layer_1" xmlns="http://www.w3.org/2000/svg" xmlns:xlink="http://www.w3.org/1999/xlink" viewBox="0 0 512.724 512.724" xml:space="preserve" stroke="#666666">
<g id="SVGRepo_bgCarrier" stroke-width="0"/>
<g id="SVGRepo_tracerCarrier" stroke-linecap="round" stroke-linejoin="round"/>
<g id="SVGRepo_iconCarrier"> <g> <g> <path d="M482.784,192.182h-17.612c-12.476-40.156-36.392-76.796-67.576-103.44c-1.676-1.424-4.204-1.236-5.64,0.444 c-1.436,1.68-1.236,4.204,0.444,5.64c30.76,26.28,54.188,62.68,65.968,102.492c0.504,1.7,2.064,2.864,3.836,2.864h20.58 c11.688,0,21.94,9.124,21.94,19.524v71.452c0,10.804-10.664,21.024-21.94,21.024h-20.58c-1.76,0-3.32,1.156-3.824,2.84 c-13.004,43.04-40.736,83.388-76.096,110.696c-0.98,0.752-1.556,1.924-1.556,3.164v53.836c0,10.832-10.776,21.46-21.752,21.46 h-19.94c-11.308,0-18.308-11.14-18.308-21.46V462.31c0-1.248-0.584-2.428-1.576-3.18c-0.992-0.76-2.288-1.016-3.484-0.676 c-20.748,5.692-39.476,8.344-58.94,8.344c-21.336,0-43.828-3.168-58.704-8.272c-1.216-0.416-2.564-0.22-3.62,0.532 c-1.052,0.748-1.676,1.96-1.676,3.252v20.408c0,11.032-10.308,21.46-21.212,21.46h-19.94c-11.272,0-18.848-11.096-18.848-21.46 v-53.836c0-1.304-0.636-2.524-1.708-3.276c-55.016-38.52-86.568-100.548-86.568-170.176c0-116.548,94.576-211.368,210.824-211.368 c24.244,0,48.02,4.072,70.66,12.108c2.068,0.728,4.36-0.348,5.104-2.432c0.74-2.076-0.348-4.364-2.432-5.104 c-23.5-8.34-48.172-12.572-73.332-12.572c-120.66,0-218.824,98.408-218.824,219.368c0,71.552,32.148,135.404,88.272,175.524 v51.764c0,16.244,12.044,29.46,26.848,29.46h19.94c15.292,0,29.212-14.044,29.212-29.46v-14.964c15.38,4.392,36.22,7.048,56,7.048 c18.6,0,36.524-2.324,56-7.292v15.212c0,16.244,11.8,29.46,26.308,29.46h19.94c15.572,0,29.752-14.044,29.756-29.46v-51.884 c35.128-27.668,62.808-67.756,76.428-110.656h17.628c15.672,0,29.94-13.832,29.94-29.024v-71.452 C512.724,205.046,498.732,192.182,482.784,192.182z"/> </g> </g> <g> <g> <path d="M396.724,0.542c-41.824,0-75.848,34.16-75.848,76.148c0,2.212,1.788,4,4,4c2.212,0,4-1.788,4-4 c0-36.232,28.288-65.948,63.848-68.032v83.524c0,2.212,1.788,4,4,4c2.212,0,4-1.788,4-4V4.542 C400.724,2.33,398.936,0.542,396.724,0.542z"/> </g> </g> <g> <g> <path d="M373.648,177.798c-0.808-2.056-3.136-3.072-5.184-2.268c-2.056,0.808-3.072,3.128-2.268,5.184 c0.912,2.324,1.372,4.78,1.372,7.304c0,11.076-9.016,20.092-20.092,20.092c-11.076,0-20.092-9.016-20.092-20.092 s9.012-20.092,20.092-20.092c3.376,0,6.708,0.852,9.64,2.46c1.928,1.06,4.364,0.352,5.428-1.58 c1.064-1.936,0.356-4.364-1.58-5.428c-4.108-2.256-8.772-3.452-13.492-3.452c-15.492,0-28.092,12.6-28.092,28.092 s12.6,28.092,28.092,28.092s28.092-12.6,28.092-28.092C375.564,184.49,374.92,181.05,373.648,177.798z"/> </g> </g> <g> <g> <path d="M70.632,144.99c-1.836-1.236-4.32-0.752-5.556,1.072c-5.824,8.616-15.5,13.756-25.88,13.756 C21.996,159.818,8,145.822,8,128.622c0-13.38,8.508-25.26,21.168-29.552c2.092-0.712,3.212-2.984,2.504-5.076 c-0.712-2.092-2.98-3.208-5.076-2.504C10.688,96.886,0,111.81,0,128.618c0,21.612,17.584,39.196,39.196,39.196 c13.04,0,25.192-6.456,32.508-17.268C72.94,148.714,72.46,146.226,70.632,144.99z"/> </g> </g> <g> <g> <path d="M255.276,55.958c-14.872,0-29.684,1.64-44.032,4.88c-2.156,0.488-3.508,2.628-3.024,4.78c0.42,1.86,2.072,3.12,3.9,3.12 c0.292,0,0.588-0.032,0.884-0.096c13.772-3.108,27.996-4.684,42.272-4.684c2.212,0,4-1.788,4-4 C259.276,57.746,257.488,55.958,255.276,55.958z"/> </g> </g> <g> <g> <path d="M193.288,69.946c-0.74-2.08-3.036-3.176-5.108-2.42c-30.164,10.764-57.648,28.952-79.48,52.596 c-1.5,1.624-1.396,4.156,0.224,5.652c0.772,0.712,1.744,1.064,2.716,1.064c1.076,0,2.148-0.432,2.936-1.288 c20.96-22.7,47.344-40.16,76.292-50.496C192.948,74.314,194.036,72.026,193.288,69.946z"/> </g> </g> </g>
</svg>