<!DOCTYPE svg PUBLIC "-//W3C//DTD SVG 1.1//EN" "http://www.w3.org/Graphics/SVG/1.1/DTD/svg11.dtd">
<!-- Uploaded to: SVG Repo, www.svgrepo.com, Transformed by: SVG Repo Mixer Tools -->
<svg fill="#666666" height="24px" width="24px" version="1.1" id="Layer_1" xmlns="http://www.w3.org/2000/svg" xmlns:xlink="http://www.w3.org/1999/xlink" viewBox="0 0 512 512" xml:space="preserve" stroke="#666666">
<g id="SVGRepo_bgCarrier" stroke-width="0"/>
<g id="SVGRepo_tracerCarrier" stroke-linecap="round" stroke-linejoin="round"/>
<g id="SVGRepo_iconCarrier"> <g> <g> <path d="M416.497,132.643L261.263,1.92c-3.042-2.56-7.484-2.56-10.525,0L95.503,132.643c-1.844,1.553-2.907,3.841-2.907,6.251 V503.83c0,4.513,3.658,8.17,8.17,8.17h310.468c4.512,0,8.17-3.657,8.17-8.17V138.894 C419.404,136.484,418.34,134.197,416.497,132.643z M403.064,495.66H108.936V142.695L256,18.851l147.064,123.844V495.66z"/> </g> </g> <g> <g> <path d="M324.085,257.966h-136.17c-4.512,0-8.17,3.657-8.17,8.17s3.658,8.17,8.17,8.17h136.17c4.512,0,8.17-3.657,8.17-8.17 S328.597,257.966,324.085,257.966z"/> </g> </g> <g> <g> <path d="M324.085,301.54h-136.17c-4.512,0-8.17,3.657-8.17,8.17c0,4.513,3.658,8.17,8.17,8.17h136.17 c4.512,0,8.17-3.657,8.17-8.17C332.256,305.197,328.597,301.54,324.085,301.54z"/> </g> </g> <g> <g> <path d="M271.979,345.115h-84.064c-4.512,0-8.17,3.657-8.17,8.17s3.658,8.17,8.17,8.17h84.064c4.512,0,8.17-3.657,8.17-8.17 S276.491,345.115,271.979,345.115z"/> </g> </g> <g> <g> <path d="M367.66,150.996H144.341c-4.512,0-8.17,3.657-8.17,8.17V293.37c0,4.513,3.658,8.17,8.17,8.17s8.17-3.657,8.17-8.17 V167.336H359.49v284.749H152.511V326.051c0-4.513-3.658-8.17-8.17-8.17s-8.17,3.657-8.17,8.17v134.205 c0,4.513,3.658,8.17,8.17,8.17H367.66c4.512,0,8.17-3.657,8.17-8.17v-301.09C375.83,154.653,372.172,150.996,367.66,150.996z"/> </g> </g> <g> <g> <path d="M256,62.094c-16.518,0-29.957,13.438-29.957,29.957c0,16.518,13.438,29.957,29.957,29.957s29.957-13.439,29.957-29.957 S272.518,62.094,256,62.094z M256,105.669c-7.509,0-13.617-6.108-13.617-13.617S248.491,78.435,256,78.435 c7.509,0,13.617,6.108,13.617,13.617S263.509,105.669,256,105.669z"/> </g> </g> </g>
</svg>