<!DOCTYPE svg PUBLIC "-//W3C//DTD SVG 1.1//EN" "http://www.w3.org/Graphics/SVG/1.1/DTD/svg11.dtd">
<!-- Uploaded to: SVG Repo, www.svgrepo.com, Transformed by: SVG Repo Mixer Tools -->
<svg fill="#666666" height="24px" width="24px" version="1.1" id="Layer_1" xmlns="http://www.w3.org/2000/svg" xmlns:xlink="http://www.w3.org/1999/xlink" viewBox="0 0 512 512" xml:space="preserve">
<g id="SVGRepo_bgCarrier" stroke-width="0"/>
<g id="SVGRepo_tracerCarrier" stroke-linecap="round" stroke-linejoin="round"/>
<g id="SVGRepo_iconCarrier"> <g> <g> <path d="M398.472,113.527C360.416,75.472,309.82,54.513,256,54.513s-104.417,20.958-142.473,59.015 C75.471,151.583,54.513,202.18,54.513,256s20.958,104.417,59.014,142.473c38.055,38.055,88.654,59.014,142.473,59.014 c53.819,0,104.417-20.958,142.473-59.014c38.055-38.055,59.014-88.654,59.014-142.473S436.527,151.583,398.472,113.527z M384.049,384.049c-34.203,34.203-79.678,53.04-128.049,53.04s-93.846-18.837-128.049-53.04 C93.748,349.846,74.911,304.371,74.911,256s18.837-93.846,53.04-128.049S207.629,74.911,256,74.911s93.846,18.837,128.049,53.04 c34.203,34.203,53.04,79.678,53.04,128.049S418.252,349.846,384.049,384.049z"/> </g> </g> <g> <g> <path d="M334.362,323.72c18.096-23.507,19.762-50.965-5.409-76.135c-28.499-28.499-55.333-19.138-78.84-8.112l-51.59-51.59 c16.434-14.768,29.538-14.145,33.283-17.89c3.744-3.744,1.04-11.024-1.664-13.728c-6.864-6.864-28.707,4.576-44.307,18.93 l-6.032-6.032c-2.081-2.081-6.449-1.457-8.737,0.83c-2.705,2.705-2.912,6.657-0.831,8.738l6.448,6.448 c-16.85,19.346-28.291,47.428-2.081,73.638c26.626,26.626,52.421,13.314,77.175,1.456l60.533,60.533 c-26.418,25.172-47.427,13.314-52.42,18.307c-3.12,3.12-1.873,10.607,1.456,13.936c7.489,7.489,37.652,6.865,64.069-19.138 l7.489,7.489c2.08,2.08,6.032,1.873,8.737-0.832c2.288-2.288,2.911-6.656,0.831-8.736L334.362,323.72z M186.459,244.463 c-15.394-15.394-8.946-33.075,3.121-47.22l48.26,48.26C219.534,254.241,202.686,260.69,186.459,244.463z M320.839,311.445 l-56.79-56.79c17.682-7.279,34.74-10.607,52.837,7.49C332.28,277.539,333.112,294.596,320.839,311.445z"/> </g> </g> <g> <g> <path d="M256,0c-4.125,0-8.29,0.099-12.381,0.295c-5.627,0.269-9.969,5.048-9.701,10.674c0.261,5.46,4.77,9.712,10.18,9.712 c0.163,0,0.328-0.004,0.495-0.012c3.768-0.179,7.605-0.27,11.407-0.27c5.632,0,10.199-4.567,10.199-10.199 C266.199,4.567,261.632,0,256,0z"/> </g> </g> <g> <g> <path d="M491.196,154.752c-11.092-25.733-26.152-49.183-44.851-69.929h3.918c5.632,0,10.199-4.567,10.199-10.199 c0-5.632-4.567-10.199-10.199-10.199h-28.743c-5.632,0-10.199,4.567-10.199,10.199v28.743c0,5.632,4.567,10.199,10.199,10.199 c5.632,0,10.199-4.567,10.199-10.199v-4.311c38.727,43.211,59.884,98.333,59.884,156.944 c0,129.911-105.69,235.602-235.602,235.602S20.398,385.911,20.398,256c0-106.18,71.488-199.702,173.844-227.427 c5.437-1.473,8.65-7.075,7.178-12.511c-1.473-5.437-7.076-8.654-12.511-7.178C77.682,39.012,0,140.63,0,256 c0,68.381,26.628,132.667,74.982,181.019C123.333,485.372,187.619,512,256,512s132.667-26.628,181.019-74.981 C485.372,388.667,512,324.381,512,256C512,220.843,505,186.778,491.196,154.752z"/> </g> </g> </g>
</svg>