<!DOCTYPE svg PUBLIC "-//W3C//DTD SVG 1.1//EN" "http://www.w3.org/Graphics/SVG/1.1/DTD/svg11.dtd">
<!-- Uploaded to: SVG Repo, www.svgrepo.com, Transformed by: SVG Repo Mixer Tools -->
<svg fill="#666666" height="24px" width="24px" version="1.1" id="Layer_1" xmlns="http://www.w3.org/2000/svg" xmlns:xlink="http://www.w3.org/1999/xlink" viewBox="0 0 512 512" xml:space="preserve">
<g id="SVGRepo_bgCarrier" stroke-width="0"/>
<g id="SVGRepo_tracerCarrier" stroke-linecap="round" stroke-linejoin="round"/>
<g id="SVGRepo_iconCarrier"> <g> <g> <path d="M502.813,70.132H391.518c-5.073,0-9.187,4.113-9.187,9.187s4.113,9.187,9.187,9.187h50.742 c3.993,26.429,24.937,47.373,51.367,51.367v120.195c-26.43,3.993-47.373,24.937-51.367,51.367H69.74 c-3.993-26.431-24.936-47.374-51.367-51.367V139.872c26.43-3.993,47.373-24.937,51.367-51.367h286.869 c5.073,0,9.187-4.113,9.187-9.187c0-5.073-4.113-9.187-9.187-9.187H9.187C4.113,70.132,0,74.245,0,79.318V320.62v112.062 c0,5.073,4.113,9.187,9.187,9.187h493.627c5.073,0,9.187-4.113,9.187-9.187V320.62V79.318 C512,74.245,507.887,70.132,502.813,70.132z M18.373,88.505h32.682c-3.568,16.276-16.406,29.114-32.682,32.682V88.505z M18.373,278.751c16.276,3.568,29.114,16.406,32.682,32.682H18.373V278.751z M493.627,348.785h-92.478 c-5.073,0-9.187,4.113-9.187,9.187c0,5.073,4.113,9.187,9.187,9.187h92.478v18.986H129.225c-5.073,0-9.187,4.113-9.187,9.187 c0,5.073,4.113,9.187,9.187,9.187h364.402v18.978H18.373v-18.978h81.455c5.073,0,9.187-4.113,9.187-9.187 c0-5.073-4.113-9.187-9.187-9.187H18.373v-18.986h355.828c5.073,0,9.187-4.113,9.187-9.187c0-5.073-4.113-9.187-9.187-9.187 H18.373v-18.978h475.254V348.785z M493.627,311.433h-32.682c3.568-16.276,16.406-29.114,32.682-32.682V311.433z M493.627,121.187 c-16.276-3.568-29.114-16.406-32.682-32.682h32.682V121.187z"/> </g> </g> <g> <g> <path d="M256,108.103c-41.2,0-74.718,41.211-74.718,91.866c0,50.655,33.518,91.866,74.718,91.866s74.718-41.211,74.718-91.866 C330.718,149.314,297.2,108.103,256,108.103z M256,273.462c-31.068,0-56.344-32.969-56.344-73.493 c0-40.524,25.277-73.493,56.344-73.493s56.344,32.969,56.344,73.493C312.344,240.493,287.068,273.462,256,273.462z"/> </g> </g> <g> <g> <path d="M463.617,177.921h-100.44c-5.073,0-9.187,4.113-9.187,9.187c0,5.073,4.113,9.187,9.187,9.187h100.44 c5.073,0,9.187-4.113,9.187-9.187C472.804,182.034,468.691,177.921,463.617,177.921z"/> </g> </g> <g> <g> <path d="M143.923,177.921H43.483c-5.073,0-9.187,4.113-9.187,9.187c0,5.073,4.113,9.187,9.187,9.187h100.44 c5.073,0,9.187-4.113,9.187-9.187C153.11,182.034,148.997,177.921,143.923,177.921z"/> </g> </g> <g> <g> <path d="M463.617,212.524h-55.12c-5.073,0-9.187,4.113-9.187,9.187c0,5.073,4.113,9.187,9.187,9.187h55.12 c5.073,0,9.187-4.113,9.187-9.187C472.804,216.637,468.691,212.524,463.617,212.524z"/> </g> </g> <g> <g> <path d="M98.603,212.524h-55.12c-5.073,0-9.187,4.113-9.187,9.187c0,5.073,4.113,9.187,9.187,9.187h55.12 c5.073,0,9.187-4.113,9.187-9.187C107.789,216.637,103.676,212.524,98.603,212.524z"/> </g> </g> <g> <g> <path d="M285.402,190.781h-49.619v-17.286h49.619c5.073,0,9.187-4.113,9.187-9.187s-4.113-9.187-9.187-9.187h-20.215v-11.189 c0-5.073-4.113-9.187-9.187-9.187c-5.073,0-9.187,4.113-9.187,9.187v11.189h-20.217c-5.073,0-9.187,4.113-9.187,9.187v35.659 c0,5.073,4.113,9.187,9.187,9.187h49.619v17.286h-49.619c-5.073,0-9.187,4.113-9.187,9.187c0,5.073,4.113,9.187,9.187,9.187 h20.217v11.189c0,5.073,4.113,9.187,9.187,9.187c5.074,0,9.187-4.113,9.187-9.187v-11.189h20.215c5.073,0,9.187-4.113,9.187-9.187 v-35.659C294.589,194.894,290.475,190.781,285.402,190.781z"/> </g> </g> </g>
</svg>