<!DOCTYPE svg PUBLIC "-//W3C//DTD SVG 1.1//EN" "http://www.w3.org/Graphics/SVG/1.1/DTD/svg11.dtd">
<!-- Uploaded to: SVG Repo, www.svgrepo.com, Transformed by: SVG Repo Mixer Tools -->
<svg fill="#666666" height="24px" width="24px" version="1.1" id="Capa_1" xmlns="http://www.w3.org/2000/svg" xmlns:xlink="http://www.w3.org/1999/xlink" viewBox="0 0 612 612" xml:space="preserve">
<g id="SVGRepo_bgCarrier" stroke-width="0"/>
<g id="SVGRepo_tracerCarrier" stroke-linecap="round" stroke-linejoin="round"/>
<g id="SVGRepo_iconCarrier"> <g> <g> <path d="M334.984,426.897c3.717-12.544,8.954-24.444,15.503-35.48c-19.542-4.114-39.102-6.815-61.54-7.875v-79.309h85.038 c-1.186,23.851-4.833,46.674-10.31,68.273c12.569-15.484,28.009-28.533,45.519-38.339c1.287-10.247,2.19-20.33,2.675-29.934 h90.925c-0.309,3.578-0.713,7.181-1.205,10.777c12.923,1.3,25.378,4.164,37.197,8.411c1.786-12.531,2.713-25.34,2.713-38.351 c0-149.285-121.452-270.737-270.744-270.737C121.459,14.333,0,135.785,0,285.07s121.459,270.737,270.75,270.737 c26.4,0,51.924-3.805,76.072-10.885c-11.654-21.939-18.261-46.958-18.261-73.485c0-5.029,0.24-10.001,0.7-14.904 c-10.702,18.248-23.252,33.934-40.314,46.346v-81.448C304.785,422.303,320.08,424.14,334.984,426.897z M502.795,266.374h-90.938 c-1.628-37.859-7.629-68.241-17.371-99.008c20.917-7.124,40.636-15.983,58.694-26.615 C481.033,175.84,498.984,215.895,502.795,266.374z M426.572,112.174c-14.14,7.704-29.385,14.267-45.45,19.668 c-11.711-26.438-26.419-50.075-43.538-69.825C371.001,72.043,401.288,89.363,426.572,112.174z M288.954,67.557 c25.239,18.355,40.604,43.872,54.744,74.261c-17.649,3.723-35.815,6.146-54.744,7.181V67.557z M288.954,186.882 c25.239-1.186,46.851-4.221,68.878-9.25c8.701,27.397,14.569,57.186,16.153,88.736h-85.032V186.882z M203.752,62.054 c-17.466,20.04-32.3,44.043-44.055,70.923c-16.349-5.288-31.877-11.768-46.302-19.415 C138.943,90.108,169.723,72.295,203.752,62.054z M87.032,142.328c18.324,10.506,38.301,19.352,59.483,26.312 c-9.433,30.388-15.276,66.184-16.854,97.733H38.692C42.459,222.205,59.906,177.127,87.032,142.328z M38.692,304.233h90.938 c1.59,31.549,7.471,67.269,17.024,97.803c-21.176,6.947-41.147,15.775-59.47,26.274C59.975,393.474,42.465,348.402,38.692,304.233 z M113.603,456.768c14.424-7.635,29.953-14.103,46.314-19.384c11.73,26.754,26.501,50.687,43.734,70.67 C169.742,497.833,139.076,480.102,113.603,456.768z M251.095,502.887c-18.93-18.519-40.869-44.365-55.06-75.087 c17.775-3.546,36.13-5.723,55.06-6.556V502.887z M251.095,383.34c-25.239,0.947-46.232,4.019-68.367,8.821 c-8.588-27.265-13.655-56.385-15.207-87.934h83.58v79.113H251.095z M251.095,266.374h-83.568 c1.596-31.549,6.676-60.594,15.308-87.852c22.103,4.795,43.014,7.616,68.254,8.569v79.283H251.095z M251.095,149.194 c-18.93-0.827-37.083-2.991-54.77-6.499c14.172-30.634,35.84-56.467,54.77-74.967V149.194z"/> <path d="M457.629,443.221c0,3.843,1.47,6.777,4.398,8.796c2.921,2.007,7.364,3.559,13.314,4.663v-26.35 c-6.688,0.732-11.307,2.221-13.869,4.455C458.91,437.024,457.629,439.839,457.629,443.221z"/> <path d="M510.007,491.478c-2.795-1.969-7.073-3.451-12.841-4.461v25.807c11.351-1.458,17.024-5.666,17.024-12.632 C514.191,496.35,512.796,493.441,510.007,491.478z"/> <path d="M485.979,345.626c-69.598,0-126.021,56.417-126.021,126.021c0,69.598,56.417,126.021,126.021,126.021 S612,541.251,612,471.647S555.577,345.626,485.979,345.626z M532.105,527.236c-8.19,6.688-19.838,10.847-34.938,12.487v14.14 h-21.82v-13.453c-8.973-0.278-17.415-1.079-25.328-2.404c-7.919-1.325-14.487-3.18-19.699-5.559v-26.905 c3.565,1.281,7.042,2.398,10.424,3.357c3.388,0.959,6.871,1.786,10.437,2.473c3.571,0.688,7.319,1.237,11.25,1.653 c3.937,0.404,8.247,0.656,12.91,0.751v-30.066c-5.767-0.82-11.484-1.943-17.163-3.363c-5.673-1.413-10.777-3.546-15.308-6.379 c-4.53-2.833-8.215-6.594-11.049-11.257c-2.839-4.663-4.259-10.702-4.259-18.116c0-6.045,1.098-11.421,3.294-16.134 c2.202-4.713,5.357-8.79,9.471-12.222s9.13-6.19,15.03-8.297c5.906-2.108,12.557-3.571,19.977-4.392v-14.14h21.819v13.73 c6.682,0.366,13.478,1.123,20.387,2.259c6.909,1.148,13.251,2.732,19.012,4.739v27.183c-14.09-4.581-27.221-7.143-39.399-7.692 v30.477c5.767,0.915,11.465,2.126,17.093,3.634c5.635,1.508,10.657,3.71,15.106,6.594c4.436,2.884,8.045,6.657,10.847,11.326 c2.783,4.663,4.183,10.651,4.183,17.977C544.39,511.361,540.295,520.554,532.105,527.236z"/> </g> </g> </g>
</svg>