<?xml version="1.0"?>
<svg width="24" height="24" xmlns="http://www.w3.org/2000/svg" xmlns:svg="http://www.w3.org/2000/svg">
 <g class="layer" display="inline">
  <title>Layer 1</title>
  <g id="SVGRepo_bgCarrier" stroke-width="0" transform="scale(1 1)"/>
  <g id="SVGRepo_tracerCarrier" stroke-linecap="round" stroke-linejoin="round"/>
  <g id="svg_13" stroke-width="0" transform="scale(1 1) matrix(58.0459 0 0 48.6897 -49.093 -38.9909)"/>
  <g id="svg_12" stroke-linecap="round" stroke-linejoin="round" transform="matrix(58.0459 0 0 48.6897 -49.093 -38.9909)"/>
  <g id="svg_17" transform="matrix(0.0169338 0 0 0.0185456 -0.0484319 -0.248284)">
   <path d="m939.61,760.58a163.73,135.43 0 0 1 -116.61,-39.64l-167.72,-138.73a31.95,26.42 0 0 0 -43.93,0l-168.52,139.39a162.93,134.77 0 0 1 -115.81,39.64l-32.75,0l212.45,175.72c66.29,54.83 173.31,54.83 239.6,0l213.25,-176.39l-19.97,0zm-612.59,-490.84c43.93,0 85.46,14.53 115.81,39.64l168.52,139.39a31.15,25.76 0 0 0 43.93,0l167.72,-138.73a162.93,134.77 0 0 1 116.61,-39.64l19.97,0l-213.25,-176.39a170.12,140.71 0 0 0 -239.6,0l-212.45,175.72l32.75,0z" fill="#000000" fill-opacity="0" id="svg_15" stroke="#666666" stroke-width="25"/>
   <path d="m1136.08,416.39l-128.59,-107.02a24.76,20.48 0 0 1 -9.58,1.98l-58.3,0c-30.35,0 -59.9,9.91 -81.47,27.75l-167.72,138.73a79.87,66.06 0 0 1 -113.41,0l-168.52,-139.39a115.81,95.79 0 0 0 -81.47,-27.75l-71.88,0a24.76,20.48 0 0 1 -8.79,-1.32l-129.39,107.02c-66.29,54.83 -66.29,143.35 0,198.19l129.39,107.02a23.96,19.82 0 0 1 8.79,-1.32l71.88,0c30.35,0 59.9,-9.91 81.47,-27.75l168.52,-139.39a82.26,68.04 0 0 1 113.41,0l167.72,138.73c21.56,17.84 51.12,27.75 81.47,27.75l58.3,0c3.19,0 6.39,0.66 9.58,1.32l128.59,-106.36c66.29,-54.83 66.29,-144.02 0,-198.85l0,0.66z" fill="#000000" fill-opacity="0" id="svg_16" stroke="#666666" stroke-width="25"/>
  </g>
 </g>

</svg>