<!DOCTYPE svg PUBLIC "-//W3C//DTD SVG 1.1//EN" "http://www.w3.org/Graphics/SVG/1.1/DTD/svg11.dtd">
<!-- Uploaded to: SVG Repo, www.svgrepo.com, Transformed by: SVG Repo Mixer Tools -->
<svg fill="#666666" version="1.1" id="Capa_1" xmlns="http://www.w3.org/2000/svg" xmlns:xlink="http://www.w3.org/1999/xlink" viewBox="0 0 64 64" xml:space="preserve" width="800px" height="800px">
<g id="SVGRepo_bgCarrier" stroke-width="0"/>
<g id="SVGRepo_tracerCarrier" stroke-linecap="round" stroke-linejoin="round"/>
<g id="SVGRepo_iconCarrier"> <g> <path d="M61,24h-1V14v-4V6c0-0.552-0.448-1-1-1H5C4.448,5,4,5.448,4,6v4v4v10H3c-1.654,0-3,1.346-3,3v25c0,3.86,3.14,7,7,7h50 c3.86,0,7-3.14,7-7V27C64,25.346,62.654,24,61,24z M62,29.829V32h-2c-0.265,0-0.52,0.105-0.707,0.293L56.586,35H42.414 l-2.707-2.707C39.519,32.105,39.265,32,39,32h-2v-2h18h4h1h1c0.193,0,0.38-0.022,0.563-0.057c0.06-0.011,0.117-0.031,0.175-0.046 C61.826,29.875,61.916,29.858,62,29.829z M6,28V15h52v13h-2v-6c0-0.552-0.448-1-1.001-1c-1.653,0-2.999-1.347-3-3 c0-0.552-0.448-1-1-1H13c-0.552,0-1,0.448-1,1c0,1.654-1.346,3-3,3c-0.552,0-1,0.448-1,1v6H6z M58,13H6v-2h52V13z M10,22.899 C11.956,22.501,13.501,21,13.899,19H50.1c0.399,2,1.944,3.501,3.9,3.9V28H39.93c-0.495-3.94-3.859-7-7.93-7 c-4.072,0-7.436,3.06-7.931,7H10V22.899z M32,23c2.967,0,5.431,2.167,5.91,5H32h-5.91C26.569,25.167,29.033,23,32,23z M32,30h3v27 h-6V30H32z M37,34h1.586l2.707,2.707C41.48,36.895,41.735,37,42,37h15c0.265,0,0.519-0.105,0.707-0.293L60.414,34H62v4h-2 c-0.265,0-0.52,0.105-0.707,0.293L56.586,41H42.414l-2.707-2.707C39.519,38.105,39.265,38,39,38h-2V34z M61,26c0.551,0,1,0.449,1,1 s-0.449,1-1,1h-1v-2H61z M6,7h52v2H6V7z M3,26h1v2H3c-0.551,0-1-0.449-1-1S2.449,26,3,26z M2,52V29.829 c0.084,0.03,0.174,0.046,0.262,0.069c0.059,0.015,0.115,0.034,0.175,0.046C2.62,29.978,2.807,30,3,30h1h1h4h18v27H7 C4.243,57,2,54.757,2,52z M57,57H37V40h1.586l2.707,2.707C41.48,42.895,41.735,43,42,43h15c0.265,0,0.519-0.105,0.707-0.293 L60.414,40H62v12C62,54.757,59.757,57,57,57z"/> <path d="M19,33H6c-0.552,0-1,0.448-1,1v19c0,0.552,0.448,1,1,1h13c0.552,0,1-0.448,1-1V34C20,33.448,19.552,33,19,33z M18,52H7V35 h11V52z"/> <rect x="22" y="32" width="2" height="23"/> <path d="M55,50H44c-0.552,0-1,0.448-1,1v4c0,0.552,0.448,1,1,1h11c0.552,0,1-0.448,1-1v-4C56,50.448,55.552,50,55,50z M54,54h-9v-2 h9V54z"/> </g> </g>
</svg>