<?xml version="1.0"?>
<svg width="512" height="512" xmlns="http://www.w3.org/2000/svg" xmlns:svg="http://www.w3.org/2000/svg" xmlns:xlink="http://www.w3.org/1999/xlink" version="1.1" xml:space="preserve">
 <g class="layer">
  <title>Layer 1</title>
  <g id="svg_13">
   <path d="m486.4,0l-204.8,0c-6.78,0 -13.29,2.7 -18.1,7.5l-256,256c-10,10 -10,26.2 0,36.2l204.8,204.8c10,10 26.2,10 36.2,0l256,-256c4.8,-4.8 7.5,-11.32 7.5,-18.1l0,-204.8c0,-14.14 -11.46,-25.6 -25.6,-25.6zm0,230.4l-256,256l-204.8,-204.8l256,-256l204.8,0l0,204.8z" fill="#666666" id="svg_3" stroke="#666666"/>
   <g id="svg_4">
    <g id="svg_5">
     <path d="m409.6,51.2c-28.28,0 -51.2,22.93 -51.2,51.2s22.92,51.2 51.2,51.2c28.27,0 51.2,-22.93 51.2,-51.2s-22.93,-51.2 -51.2,-51.2zm0,76.8c-14.15,0 -25.6,-11.46 -25.6,-25.6c0,-14.14 11.45,-25.6 25.6,-25.6c14.14,0 25.6,11.46 25.6,25.6c0,14.14 -11.46,25.6 -25.6,25.6z" fill="#666666" id="svg_6" stroke="#666666"/>
    </g>
   </g>
   <g id="svg_7">
    <g id="svg_8">
     <path d="m290.23,292.3c-9.52,-7.95 -24.69,-14.8 -46.34,-20.95l0,-77.12c8.17,0.89 14.92,3.25 20.08,7.02c7.7,5.75 11.72,14.1 12.25,25.38c0,4.27 1.33,7.75 3.93,10.32c4.98,5.03 13.07,4.58 17.11,0c2.6,-2.57 3.92,-6.05 3.92,-10.32c0,-16.25 -5.62,-29.6 -16.76,-39.7c-10.33,-9.15 -23.95,-14.42 -40.52,-15.67l0,-12.84l-0.01,0c0,-6.7 -4.11,-10.7 -11,-10.7c-6.81,0 -10.71,3.9 -10.71,10.7l0,12.78c-16.59,1.1 -30.49,6.37 -41.39,15.72c-12.71,11.05 -19.15,25.9 -19.15,44.15c0,15.73 5.76,28.61 17.11,38.25c9.55,8.2 24.15,14.77 43.43,19.57l0,82.86c-11.7,-1.61 -20.97,-5.18 -27.6,-10.65c-9.4,-7.93 -14.07,-19.98 -13.88,-35.83c0,-4.27 -1.21,-7.64 -3.5,-9.92c-4.43,-4.9 -12.51,-4.75 -16.64,-0.13c-2.41,2.4 -3.63,5.8 -3.63,10.05c0,24.8 7.47,43.25 22.28,54.93c10.15,7.6 24.59,12.48 42.98,14.5l0,18.58c0,6.99 3.9,11 10.71,11c6.99,0 11,-4.01 11,-11l0,-18.26c17.21,-1.82 31.91,-7.85 43.73,-17.93c13.5,-11.64 20.33,-26.7 20.33,-44.74c0.01,-16.92 -5.96,-30.4 -17.73,-40.05zm-68.07,-26.92c-12.31,-3.6 -21.31,-8.28 -26.76,-13.9c-5.73,-5.9 -8.52,-13.26 -8.52,-22.48c0,-11.2 4.2,-19.8 12.83,-26.27c6.29,-4.68 13.83,-7.61 22.45,-8.73l0,71.38zm45.95,96.49c-6.83,5.03 -14.96,8.33 -24.23,9.8l0,-76.35c14.27,3.9 24.12,8.25 29.31,12.95c6.12,5.41 9.22,14.1 9.22,25.85c0,11.78 -4.66,20.85 -14.3,27.75z" fill="#666666" id="svg_9" stroke="#666666"/>
    </g>
   </g>
   <use fill="#666666" id="svg_11" transform="matrix(8.52437 0 0 9.04219 -27.3591 -32.2302)" x="0" xlink:href="#svg_10" y="0"/>
  </g>
 </g>
 <defs>
  <symbol height="24px" id="svg_10" viewBox="0 -960 960 960" width="24px" xmlns="http://www.w3.org/2000/svg">
   <path d="m440,-440l-240,0l0,-80l240,0l0,-240l80,0l0,240l240,0l0,80l-240,0l0,240l-80,0l0,-240z"/>
  </symbol>
 </defs>
</svg>