<?xml version="1.0"?>
<svg width="24" height="24" xmlns="http://www.w3.org/2000/svg" xmlns:svg="http://www.w3.org/2000/svg" xmlns:xlink="http://www.w3.org/1999/xlink">
 <g class="layer">
  <title>Layer 1</title>
  <g id="svg_28" transform="translate(0.0429032 23.8953) scale(1 1.56002) translate(-0.0429032 -23.8953) translate(0.0327068 10.3532) matrix(0.0466189 0 0 0.0310475 -0.0149401 -2.38564)">
   <path clip-rule="evenodd" d="m431.75,146.5l0,52.5l16.5,0l0,-52.5l57.75,0l0,-15l-57.75,0l0,-52.5l-16.5,0l0,52.5l-57.75,0l0,15l57.75,0z" fill="#666666" fill-rule="evenodd" id="svg_1" stroke="#000000" stroke-opacity="0" stroke-width="0"/>
   <use id="svg_27" transform="translate(0.974903 511.853) scale(1.00392 1) translate(-0.974903 -511.853) translate(-1 513.29) matrix(0.991634 0 0 0.812499 2.9749 -417.519)" xlink:href="#svg_26"/>
  </g>
 </g>
 <defs>
  <symbol height="512" id="svg_26" version="1.1" width="512" xml:space="preserve" xmlns="http://www.w3.org/2000/svg" xmlns:svg="http://www.w3.org/2000/svg">
   <g class="layer">
    <title>Layer 1</title>
    <g id="svg_25" stroke-width="0"/>
    <g id="svg_24" stroke-linecap="round" stroke-linejoin="round"/>
    <g id="svg_2" transform="translate(0 69)">
     <g id="svg_21">
      <g id="svg_22">
       <path d="m502.81,70.13l-111.29,0c-5.08,0 -9.19,4.12 -9.19,9.19s4.11,9.19 9.19,9.19l50.74,0c3.99,26.43 24.94,47.37 51.37,51.36l0,120.2c-26.43,3.99 -47.38,24.93 -51.37,51.37l-372.52,0c-3.99,-26.44 -24.94,-47.38 -51.37,-51.37l0,-120.2c26.43,-3.99 47.38,-24.93 51.37,-51.36l286.87,0c5.07,0 9.19,-4.12 9.19,-9.19c0,-5.07 -4.12,-9.19 -9.19,-9.19l-347.42,0c-5.08,0 -9.19,4.12 -9.19,9.19l0,241.3l0,112.06c0,5.07 4.11,9.19 9.19,9.19l493.62,0c5.08,0 9.19,-4.11 9.19,-9.19l0,-112.06l0,-241.3c0,-5.07 -4.11,-9.19 -9.19,-9.19zm-484.44,18.37l32.68,0c-3.56,16.28 -16.4,29.12 -32.68,32.69l0,-32.69zm0,190.25c16.28,3.57 29.12,16.41 32.69,32.68l-32.69,0l0,-32.68zm475.26,70.04l-92.48,0c-5.07,0 -9.19,4.11 -9.19,9.18c0,5.08 4.11,9.19 9.19,9.19l92.48,0l0,18.99l-364.41,0c-5.07,0 -9.18,4.11 -9.18,9.18c0,5.08 4.11,9.19 9.18,9.19l364.41,0l0,18.98l-475.26,0l0,-18.98l81.46,0c5.07,0 9.18,-4.11 9.18,-9.19c0,-5.07 -4.11,-9.18 -9.18,-9.18l-81.46,0l0,-18.99l355.83,0c5.07,0 9.19,-4.11 9.19,-9.19c0,-5.07 -4.12,-9.18 -9.19,-9.18l-355.83,0l0,-18.98l475.26,0l0,18.98zm0,-37.36l-32.69,0c3.57,-16.27 16.41,-29.11 32.69,-32.68l0,32.68zm0,-190.24c-16.28,-3.57 -29.12,-16.41 -32.69,-32.68l32.69,0l0,32.68z" fill="#666666" id="svg_23"/>
      </g>
     </g>
     <g id="svg_18">
      <g id="svg_19">
       <path d="m256,108.1c-41.2,0 -74.72,41.21 -74.72,91.87c0,50.65 33.52,91.86 74.72,91.86s74.72,-41.21 74.72,-91.86c0,-50.66 -33.52,-91.87 -74.72,-91.87zm0,165.36c-31.07,0 -56.34,-32.97 -56.34,-73.49c0,-40.53 25.27,-73.49 56.34,-73.49s56.34,32.96 56.34,73.49c0,40.52 -25.27,73.49 -56.34,73.49z" fill="#666666" id="svg_20"/>
      </g>
     </g>
     <g id="svg_15">
      <g id="svg_16">
       <path d="m463.62,177.92l-100.44,0c-5.08,0 -9.19,4.11 -9.19,9.19c0,5.07 4.11,9.19 9.19,9.19l100.44,0c5.07,0 9.18,-4.12 9.18,-9.19c0,-5.08 -4.11,-9.19 -9.18,-9.19z" fill="#666666" id="svg_17"/>
      </g>
     </g>
     <g id="svg_12">
      <g id="svg_13">
       <path d="m143.92,177.92l-100.44,0c-5.07,0 -9.18,4.11 -9.18,9.19c0,5.07 4.11,9.19 9.18,9.19l100.44,0c5.08,0 9.19,-4.12 9.19,-9.19c0,-5.08 -4.11,-9.19 -9.19,-9.19z" fill="#666666" id="svg_14"/>
      </g>
     </g>
     <g id="svg_9">
      <g id="svg_10">
       <path d="m463.62,212.52l-55.12,0c-5.08,0 -9.19,4.12 -9.19,9.19c0,5.07 4.11,9.19 9.19,9.19l55.12,0c5.07,0 9.18,-4.11 9.18,-9.19c0,-5.07 -4.11,-9.19 -9.18,-9.19z" fill="#666666" id="svg_11"/>
      </g>
     </g>
     <g id="svg_6">
      <g id="svg_7">
       <path d="m98.6,212.52l-55.12,0c-5.07,0 -9.18,4.12 -9.18,9.19c0,5.07 4.11,9.19 9.18,9.19l55.12,0c5.08,0 9.19,-4.11 9.19,-9.19c0,-5.07 -4.11,-9.19 -9.19,-9.19z" fill="#666666" id="svg_8"/>
      </g>
     </g>
     <g id="svg_3">
      <g id="svg_4">
       <path d="m285.4,190.78l-49.62,0l0,-17.28l49.62,0c5.07,0 9.19,-4.12 9.19,-9.19s-4.11,-9.19 -9.19,-9.19l-20.21,0l0,-11.19c0,-5.07 -4.12,-9.19 -9.19,-9.19c-5.07,0 -9.19,4.12 -9.19,9.19l0,11.19l-20.21,0c-5.08,0 -9.19,4.11 -9.19,9.19l0,35.66c0,5.07 4.11,9.18 9.19,9.18l49.62,0l0,17.29l-49.62,0c-5.08,0 -9.19,4.11 -9.19,9.19c0,5.07 4.11,9.18 9.19,9.18l20.21,0l0,11.19c0,5.08 4.12,9.19 9.19,9.19c5.07,0 9.19,-4.11 9.19,-9.19l0,-11.19l20.21,0c5.08,0 9.19,-4.11 9.19,-9.18l0,-35.66c0,-5.08 -4.11,-9.19 -9.19,-9.19z" fill="#666666" id="svg_5"/>
      </g>
     </g>
    </g>
   </g>
  </symbol>
 </defs>
</svg>